<?xml version="1.0" encoding="UTF-8" standalone="no"?>
<svg width="84px" height="85px" viewBox="0 0 84 85" version="1.1" xmlns="http://www.w3.org/2000/svg" xmlns:xlink="http://www.w3.org/1999/xlink">
    <!-- Generator: Sketch 39.1 (31720) - http://www.bohemiancoding.com/sketch -->
    <title>quote-icon</title>
    <desc>Created with Sketch.</desc>
    <defs></defs>
    <g id="Page-1" stroke="none" stroke-width="1" fill="none" fill-rule="evenodd">
        <g id="quote-icon" fill="#DCDCDC">
            <path d="M76.648,7.947 L76.648,59.181 L36.138,59.181 L32.312,59.181 L30.189,62.365 L24.222,71.315 L18.256,62.365 L16.133,59.181 L12.307,59.181 L7.541,59.181 L7.541,7.947 L76.648,7.947 L76.648,7.947 Z M83.798,0.798 L0.394,0.798 L0.394,66.33 L12.309,66.33 L24.224,84.202 L36.138,66.33 L83.798,66.33 L83.798,0.798 L83.798,0.798 L83.798,0.798 Z" id="Shape"></path>
            <path d="M37.604,21.63 C34.716,22.174 32.684,24.269 31.511,27.913 C30.925,29.714 30.632,31.492 30.632,33.251 C30.632,33.46 30.641,33.64 30.662,33.786 C30.683,33.931 30.715,34.256 30.757,34.759 L37.604,34.759 L37.604,48.456 L24.223,48.456 L24.223,35.828 C24.223,29.631 25.459,24.855 27.931,21.505 C30.402,18.154 33.625,16.227 37.605,15.724 L37.605,21.63 L37.604,21.63 Z" id="Shape"></path>
            <path d="M58.781,21.63 C56.472,22.007 54.727,23.305 53.531,25.526 C52.34,27.744 51.739,30.301 51.739,33.189 C51.739,33.443 51.753,33.694 51.771,33.945 C51.794,34.194 51.846,34.466 51.929,34.759 L58.781,34.759 L58.781,48.456 L45.335,48.456 L45.335,35.828 C45.335,30.846 46.382,26.394 48.472,22.477 C50.572,18.562 54.001,16.31 58.782,15.724 L58.782,21.63 L58.781,21.63 Z" id="Shape"></path>
        </g>
    </g>
</svg>