<?xml version="1.0" encoding="UTF-8" standalone="no"?>
<svg width="545px" height="58px" viewBox="0 0 545 58" version="1.1" xmlns="http://www.w3.org/2000/svg" xmlns:xlink="http://www.w3.org/1999/xlink">
    <!-- Generator: Sketch 39.1 (31720) - http://www.bohemiancoding.com/sketch -->
    <title>logo</title>
    <desc>Created with Sketch.</desc>
    <defs></defs>
    <g id="Page-1" stroke="none" stroke-width="1" fill="none" fill-rule="evenodd">
        <g id="logo" transform="translate(-0.902344, -0.238281)">
            <g>
                <g id="Group-3" transform="translate(501.000000, 0.204000)">
                    <path d="M38,17.4 L38,35.3 C38,35.9 38.3,36.4 38.8,36.7 L42.2,38.5 C43.3,39.1 44.5,38.3 44.5,37.1 L44.6,13.5 C44.6,12.9 44.3,12.4 43.8,12.1 L23,1 C22,0.4 20.7,1.2 20.7,2.4 L20.7,6.2 C20.7,6.8 21,7.3 21.5,7.6 L37.3,16.1 C37.7,16.2 38,16.8 38,17.4" id="Fill-1" fill="#1B87C9"></path>
                    <path d="M7.4,22.1 L10.2,23.6 L17.4,27.5 C17.9,27.8 18.2,28.3 18.2,28.9 L18.2,37.1 L18.2,40.2 L18.2,46.6 C18.2,47.2 18.5,47.7 19,48 L22.5,49.8 C23.6,50.4 24.8,49.6 24.8,48.4 L24.8,43.7 L24.8,40.6 L24.8,24.8 C24.8,24.2 24.5,23.7 24,23.4 L10.1,16 L7.3,14.5 L3.2,12.3 C2.2,11.7 0.9,12.5 0.9,13.7 L0.9,17.7 C0.9,18.3 1.2,18.8 1.7,19.1 L7.4,22.1 Z" id="Fill-6" fill="#9EDCF1"></path>
                    <path d="M17.7,16.3 L20.5,17.8 L27.7,21.7 C28.2,22 28.5,22.5 28.5,23.1 L28.5,31.3 L28.5,34.4 L28.5,40.8 C28.5,41.4 28.8,41.9 29.3,42.2 L32.9,44.1 C34,44.7 35.2,43.9 35.2,42.7 L35.2,38 L35.2,34.9 L35.2,19.1 C35.2,18.5 34.9,18 34.4,17.7 L20.5,10.2 L17.7,8.7 L13.6,6.5 C12.6,5.9 11.3,6.7 11.3,7.9 L11.3,12 C11.3,12.6 11.6,13.1 12.1,13.4 L17.7,16.3 Z" id="Fill-4" fill="#38A4DD"></path>
                </g>
                <text id="coding-school" font-family="Ubuntu-Light, Ubuntu" font-size="40" font-weight="300" fill="#38A4DD">
                    <tspan x="258.0312" y="49.4713121">coding school</tspan>
                </text>
                <text id="silicon-valley" font-family="Ubuntu-Bold, Ubuntu" font-size="40" font-weight="bold" fill="#38A4DD">
                    <tspan x="0.7607" y="49.1471121">sili</tspan>
                    <tspan x="55.9207" y="49.1471121" letter-spacing="-1">c</tspan>
                    <tspan x="73.9207" y="49.1471121">on </tspan>
                    <tspan x="131.3607" y="49.1471121" letter-spacing="-0.404">v</tspan>
                    <tspan x="152.5567" y="49.1471121">alley</tspan>
                </text>
            </g>
        </g>
    </g>
</svg>