<?xml version="1.0" encoding="UTF-8" standalone="no"?>
<svg width="555px" height="56px" viewBox="0 0 555 56" version="1.1" xmlns="http://www.w3.org/2000/svg" xmlns:xlink="http://www.w3.org/1999/xlink">
    <!-- Generator: Sketch 40.1 (33804) - http://www.bohemiancoding.com/sketch -->
    <title>svcs-logo</title>
    <desc>Created with Sketch.</desc>
    <defs></defs>
    <g id="Page-1" stroke="none" stroke-width="1" fill="none" fill-rule="evenodd">
        <g id="svcs-logo">
            <g id="Group" transform="translate(510.000000, 0.000000)">
                <path d="M37.5,17.2 L37.5,35.1 C37.5,35.7 37.8,36.2 38.3,36.5 L41.7,38.3 C42.8,38.9 44,38.1 44,36.9 L44.1,13.3 C44.1,12.7 43.8,12.2 43.3,11.9 L22.5,0.8 C21.5,0.2 20.2,1 20.2,2.2 L20.2,6 C20.2,6.6 20.5,7.1 21,7.4 L36.8,15.9 C37.2,16 37.5,16.6 37.5,17.2 L37.5,17.2 Z" id="Shape" fill="#1B87C9"></path>
                <path d="M17.2,16.1 L20,17.6 L27.2,21.5 C27.7,21.8 28,22.3 28,22.9 L28,31.1 L28,34.2 L28,40.6 C28,41.2 28.3,41.7 28.8,42 L32.4,43.9 C33.5,44.5 34.7,43.7 34.7,42.5 L34.7,37.8 L34.7,34.7 L34.7,18.9 C34.7,18.3 34.4,17.8 33.9,17.5 L20,10 L17.2,8.5 L13.1,6.3 C12.1,5.7 10.8,6.5 10.8,7.7 L10.8,11.8 C10.8,12.4 11.1,12.9 11.6,13.2 L17.2,16.1 L17.2,16.1 Z" id="Shape" fill="#38A4DD"></path>
                <path d="M6.9,21.9 L9.7,23.4 L16.9,27.3 C17.4,27.6 17.7,28.1 17.7,28.7 L17.7,36.9 L17.7,40 L17.7,46.4 C17.7,47 18,47.5 18.5,47.8 L22,49.6 C23.1,50.2 24.3,49.4 24.3,48.2 L24.3,43.5 L24.3,40.4 L24.3,24.6 C24.3,24 24,23.5 23.5,23.2 L9.6,15.8 L6.8,14.3 L2.7,12.1 C1.7,11.5 0.4,12.3 0.4,13.5 L0.4,17.5 C0.4,18.1 0.7,18.6 1.2,18.9 L6.9,21.9 L6.9,21.9 Z" id="Shape" fill="#9EDCF1"></path>
            </g>
            <g id="Group" transform="translate(258.000000, 16.000000)" fill="#38A4DD">
                <path d="M10.5,32.3 C8.9,32.3 7.5,32 6.3,31.5 C5.1,31 4.1,30.3 3.2,29.3 C2.4,28.4 1.8,27.2 1.3,25.9 C0.9,24.6 0.7,23.1 0.7,21.5 C0.7,19.9 0.9,18.4 1.4,17.1 C1.9,15.8 2.5,14.6 3.3,13.7 C4.1,12.8 5.1,12 6.3,11.5 C7.5,11 8.8,10.7 10.3,10.7 C11.4,10.7 12.5,10.8 13.4,11 C14.4,11.2 15.1,11.4 15.7,11.7 L15,14 C14.5,13.7 13.9,13.5 13.2,13.4 C12.5,13.2 11.6,13.2 10.5,13.2 C8.2,13.2 6.5,13.9 5.3,15.4 C4.1,16.9 3.5,19 3.5,21.7 C3.5,22.9 3.6,24.1 3.9,25.1 C4.2,26.1 4.6,27 5.2,27.7 C5.8,28.4 6.6,29 7.5,29.4 C8.4,29.8 9.6,30 11,30 C12.1,30 13.1,29.9 13.8,29.6 C14.6,29.3 15.1,29.1 15.5,28.9 L16.1,31.1 C15.6,31.4 14.9,31.6 13.8,31.9 C12.7,32.2 11.7,32.3 10.5,32.3 L10.5,32.3 Z" id="Shape"></path>
                <path d="M38,21.6 C38,23.2 37.8,24.7 37.3,26 C36.8,27.3 36.2,28.5 35.3,29.4 C34.4,30.3 33.5,31.1 32.3,31.6 C31.2,32.1 29.9,32.4 28.5,32.4 C27.1,32.4 25.8,32.1 24.7,31.6 C23.6,31.1 22.6,30.4 21.7,29.4 C20.9,28.5 20.2,27.3 19.7,26 C19.2,24.7 19,23.2 19,21.6 C19,20 19.2,18.5 19.7,17.2 C20.2,15.9 20.8,14.7 21.7,13.8 C22.5,12.9 23.5,12.1 24.7,11.6 C25.8,11.1 27.1,10.8 28.5,10.8 C29.9,10.8 31.2,11.1 32.3,11.6 C33.4,12.1 34.4,12.9 35.3,13.8 C36.2,14.7 36.8,15.9 37.3,17.2 C37.8,18.5 38,20 38,21.6 L38,21.6 Z M35.3,21.6 C35.3,19 34.7,17 33.5,15.4 C32.3,13.9 30.7,13.1 28.6,13.1 C26.5,13.1 24.9,13.9 23.7,15.4 C22.5,16.9 21.9,19 21.9,21.6 C21.9,24.2 22.5,26.2 23.7,27.8 C24.9,29.3 26.5,30.1 28.6,30.1 C30.7,30.1 32.3,29.3 33.5,27.8 C34.7,26.2 35.3,24.2 35.3,21.6 L35.3,21.6 Z" id="Shape"></path>
                <path d="M60.1,31.3 C59.3,31.6 58.3,31.8 57.1,32.1 C55.9,32.3 54.4,32.5 52.5,32.5 C51,32.5 49.6,32.3 48.4,31.8 C47.2,31.3 46.1,30.6 45.2,29.7 C44.3,28.8 43.6,27.6 43.1,26.3 C42.6,25 42.4,23.5 42.4,21.8 C42.4,20.2 42.6,18.8 43,17.5 C43.4,16.2 44,15 44.8,14.1 C45.6,13.1 46.6,12.4 47.7,11.9 C48.9,11.4 50.2,11.1 51.7,11.1 C53.1,11.1 54.2,11.3 55.2,11.7 C56.2,12.1 56.9,12.5 57.4,12.8 L57.4,1.7 L60,1.2 L60,31.3 L60.1,31.3 Z M57.5,15 C57.3,14.8 57,14.6 56.6,14.4 C56.2,14.2 55.8,14 55.3,13.8 C54.8,13.6 54.3,13.5 53.7,13.3 C53.1,13.1 52.6,13.1 51.9,13.1 C50.6,13.1 49.5,13.3 48.7,13.8 C47.8,14.3 47.1,14.9 46.6,15.6 C46.1,16.4 45.7,17.3 45.4,18.3 C45.2,19.3 45,20.4 45,21.6 C45,24.3 45.7,26.4 47,27.9 C48.4,29.4 50.2,30.1 52.4,30.1 C53.7,30.1 54.7,30 55.5,29.9 C56.3,29.8 56.9,29.7 57.3,29.5 L57.3,15 L57.5,15 Z" id="Shape"></path>
                <path d="M70.2,5 C70.2,5.6 70,6.1 69.6,6.5 C69.2,6.9 68.8,7 68.2,7 C67.7,7 67.2,6.8 66.8,6.5 C66.4,6.1 66.2,5.7 66.2,5 C66.2,4.3 66.4,3.9 66.8,3.5 C67.2,3.1 67.6,3 68.2,3 C68.7,3 69.2,3.2 69.6,3.5 C70,3.9 70.2,4.4 70.2,5 L70.2,5 Z M69.6,31.9 L67,31.9 L67,11.2 L69.6,11.2 L69.6,31.9 L69.6,31.9 Z" id="Shape"></path>
                <path d="M76.4,11.9 C77.2,11.7 78.2,11.4 79.5,11.2 C80.8,10.9 82.4,10.8 84.3,10.8 C85.9,10.8 87.2,11 88.2,11.5 C89.3,12 90.1,12.6 90.7,13.4 C91.3,14.2 91.8,15.2 92,16.4 C92.3,17.6 92.4,18.9 92.4,20.3 L92.4,31.9 L90,31.9 L90,21.2 C90,19.7 89.9,18.5 89.7,17.5 C89.5,16.5 89.2,15.7 88.7,15 C88.2,14.4 87.6,13.9 86.9,13.6 C86.1,13.3 85.2,13.2 84,13.2 C82.8,13.2 81.7,13.3 80.8,13.4 C79.9,13.5 79.3,13.7 79.1,13.8 L79.1,32 L76.5,32 L76.5,11.9 L76.4,11.9 Z" id="Shape"></path>
                <path d="M112.7,29.5 C112.5,29.6 112.3,29.8 112,30 C111.7,30.2 111.3,30.4 110.8,30.5 C110.3,30.7 109.8,30.8 109.2,31 C108.6,31.1 107.9,31.2 107.2,31.2 C106,31.2 104.8,31 103.7,30.6 C102.6,30.2 101.6,29.6 100.8,28.8 C100,28 99.3,27 98.8,25.7 C98.3,24.4 98,22.9 98,21.1 C98,19.6 98.2,18.3 98.7,17 C99.2,15.7 99.8,14.7 100.6,13.7 C101.4,12.8 102.5,12.1 103.7,11.5 C104.9,11 106.3,10.7 107.8,10.7 C109.7,10.7 111.3,10.8 112.4,11.1 C113.6,11.4 114.5,11.6 115.3,11.8 L115.3,30.7 C115.3,33.8 114.5,36 112.9,37.3 C111.3,38.6 108.9,39.3 105.7,39.3 C104.4,39.3 103.2,39.2 102.1,39 C101,38.8 100.1,38.6 99.3,38.3 L99.8,35.9 C100.4,36.2 101.3,36.4 102.4,36.7 C103.5,36.9 104.6,37 105.7,37 C108.2,37 109.9,36.5 111,35.6 C112.1,34.7 112.7,33 112.7,30.7 L112.7,29.5 L112.7,29.5 Z M112.6,13.7 C112.1,13.6 111.6,13.4 110.8,13.3 C110.1,13.2 109.1,13.1 107.7,13.1 C106.6,13.1 105.6,13.3 104.7,13.7 C103.8,14.1 103.1,14.6 102.5,15.3 C101.9,16 101.4,16.8 101.1,17.8 C100.8,18.8 100.6,19.8 100.6,21 C100.6,22.4 100.8,23.5 101.2,24.5 C101.6,25.5 102.1,26.3 102.7,26.9 C103.3,27.5 104,28 104.8,28.2 C105.6,28.5 106.4,28.6 107.2,28.6 C108.4,28.6 109.4,28.4 110.4,28.1 C111.4,27.8 112.1,27.4 112.7,26.9 L112.7,13.7 L112.6,13.7 Z" id="Shape"></path>
                <path d="M135.5,30.1 C137,30.1 138.2,29.9 139.2,29.4 C140.2,28.9 140.7,28.1 140.7,26.9 C140.7,26.3 140.6,25.9 140.4,25.5 C140.2,25.1 139.9,24.7 139.5,24.4 C139.1,24.1 138.6,23.8 137.9,23.5 C137.2,23.2 136.4,22.9 135.5,22.5 C134.7,22.2 134,21.9 133.3,21.5 C132.6,21.2 132,20.8 131.5,20.3 C131,19.9 130.5,19.3 130.2,18.7 C129.9,18.1 129.7,17.3 129.7,16.5 C129.7,14.8 130.3,13.5 131.6,12.4 C132.9,11.3 134.6,10.8 136.8,10.8 C138.2,10.8 139.4,10.9 140.3,11.2 C141.2,11.5 141.9,11.7 142.2,11.8 L141.6,14.1 C141.3,13.9 140.7,13.7 140,13.5 C139.2,13.2 138.1,13.1 136.7,13.1 C136.1,13.1 135.6,13.2 135,13.3 C134.5,13.4 134,13.6 133.6,13.9 C133.2,14.2 132.9,14.5 132.6,14.9 C132.4,15.3 132.2,15.8 132.2,16.3 C132.2,16.8 132.3,17.3 132.5,17.7 C132.7,18.1 133,18.5 133.4,18.8 C133.8,19.1 134.3,19.4 134.9,19.7 C135.5,20 136.2,20.3 137,20.6 C137.8,20.9 138.6,21.2 139.3,21.6 C140,21.9 140.7,22.3 141.2,22.8 C141.8,23.3 142.2,23.8 142.6,24.5 C142.9,25.2 143.1,26 143.1,27 C143.1,28.9 142.4,30.3 141,31.2 C139.6,32.2 137.7,32.6 135.3,32.6 C133.5,32.6 132.1,32.4 131.1,32.1 C130.1,31.8 129.5,31.6 129.2,31.4 L129.9,29 C130,29.1 130.2,29.1 130.4,29.3 C130.7,29.4 131,29.6 131.5,29.7 C132,29.8 132.5,30 133.1,30.1 C133.9,30 134.7,30.1 135.5,30.1 L135.5,30.1 Z" id="Shape"></path>
                <path d="M156.9,32.3 C155.3,32.3 153.9,32 152.7,31.5 C151.5,31 150.5,30.3 149.6,29.3 C148.8,28.4 148.2,27.2 147.7,25.9 C147.3,24.6 147.1,23.1 147.1,21.5 C147.1,19.9 147.3,18.4 147.8,17.1 C148.2,15.8 148.9,14.6 149.7,13.7 C150.5,12.7 151.5,12 152.7,11.5 C153.9,11 155.2,10.7 156.7,10.7 C157.8,10.7 158.9,10.8 159.8,11 C160.7,11.2 161.5,11.4 162.1,11.7 L161.4,13.9 C160.9,13.6 160.3,13.4 159.6,13.3 C158.9,13.1 158,13.1 156.9,13.1 C154.6,13.1 152.9,13.8 151.7,15.3 C150.5,16.8 149.9,18.9 149.9,21.6 C149.9,22.8 150,24 150.3,25 C150.6,26 151,26.9 151.6,27.6 C152.2,28.3 153,28.9 153.9,29.3 C154.8,29.7 156,29.9 157.4,29.9 C158.5,29.9 159.5,29.8 160.2,29.5 C161,29.2 161.5,29 161.9,28.8 L162.5,31 C162,31.3 161.3,31.5 160.2,31.8 C159.1,32.2 158,32.3 156.9,32.3 L156.9,32.3 Z" id="Shape"></path>
                <path d="M166.8,31.9 L166.8,1.3 L169.4,0.8 L169.4,11.8 C170.3,11.5 171.1,11.2 172,11.1 C172.9,10.9 173.8,10.8 174.6,10.8 C176.2,10.8 177.5,11 178.6,11.5 C179.7,12 180.5,12.6 181.2,13.4 C181.8,14.2 182.3,15.2 182.5,16.4 C182.8,17.6 182.9,18.9 182.9,20.3 L182.9,31.9 L180.3,31.9 L180.3,21.2 C180.3,19.7 180.2,18.5 180,17.5 C179.8,16.5 179.5,15.7 179,15 C178.5,14.3 177.9,13.9 177.1,13.6 C176.3,13.3 175.4,13.2 174.2,13.2 C173.7,13.2 173.3,13.2 172.7,13.3 C172.2,13.4 171.7,13.5 171.2,13.6 C170.7,13.7 170.3,13.8 170,13.9 C169.7,14 169.4,14.1 169.3,14.1 L169.3,31.9 L166.8,31.9 L166.8,31.9 Z" id="Shape"></path>
                <path d="M207.2,21.6 C207.2,23.2 207,24.7 206.5,26 C206,27.3 205.4,28.5 204.5,29.4 C203.6,30.3 202.7,31.1 201.5,31.6 C200.3,32.1 199.1,32.4 197.7,32.4 C196.3,32.4 195,32.1 193.9,31.6 C192.8,31.1 191.8,30.4 190.9,29.4 C190.1,28.5 189.4,27.3 188.9,26 C188.4,24.7 188.2,23.2 188.2,21.6 C188.2,20 188.4,18.5 188.9,17.2 C189.4,15.9 190,14.7 190.9,13.8 C191.7,12.9 192.7,12.1 193.9,11.6 C195,11.1 196.3,10.8 197.7,10.8 C199.1,10.8 200.4,11.1 201.5,11.6 C202.6,12.1 203.6,12.9 204.5,13.8 C205.4,14.7 206,15.9 206.5,17.2 C206.9,18.5 207.2,20 207.2,21.6 L207.2,21.6 Z M204.4,21.6 C204.4,19 203.8,17 202.6,15.4 C201.4,13.9 199.8,13.1 197.7,13.1 C195.6,13.1 194,13.9 192.8,15.4 C191.6,16.9 191,19 191,21.6 C191,24.2 191.6,26.2 192.8,27.8 C194,29.3 195.6,30.1 197.7,30.1 C199.8,30.1 201.4,29.3 202.6,27.8 C203.8,26.2 204.4,24.2 204.4,21.6 L204.4,21.6 Z" id="Shape"></path>
                <path d="M230.4,21.6 C230.4,23.2 230.2,24.7 229.7,26 C229.2,27.3 228.6,28.5 227.7,29.4 C226.8,30.3 225.9,31.1 224.7,31.6 C223.5,32.1 222.3,32.4 220.9,32.4 C219.5,32.4 218.2,32.1 217.1,31.6 C216,31.1 215,30.4 214.1,29.4 C213.3,28.5 212.6,27.3 212.1,26 C211.6,24.7 211.4,23.2 211.4,21.6 C211.4,20 211.6,18.5 212.1,17.2 C212.6,15.9 213.2,14.7 214.1,13.8 C214.9,12.9 215.9,12.1 217.1,11.6 C218.2,11.1 219.5,10.8 220.9,10.8 C222.3,10.8 223.6,11.1 224.7,11.6 C225.8,12.1 226.8,12.9 227.7,13.8 C228.6,14.7 229.2,15.9 229.7,17.2 C230.2,18.5 230.4,20 230.4,21.6 L230.4,21.6 Z M227.7,21.6 C227.7,19 227.1,17 225.9,15.4 C224.7,13.9 223.1,13.1 221,13.1 C218.9,13.1 217.3,13.9 216.1,15.4 C214.9,16.9 214.3,19 214.3,21.6 C214.3,24.2 214.9,26.2 216.1,27.8 C217.3,29.3 218.9,30.1 221,30.1 C223.1,30.1 224.7,29.3 225.9,27.8 C227.1,26.2 227.7,24.2 227.7,21.6 L227.7,21.6 Z" id="Shape"></path>
                <path d="M241.3,32.3 C240.4,32.3 239.7,32.2 239,32 C238.3,31.8 237.8,31.5 237.4,31.1 C237,30.7 236.6,30.2 236.4,29.5 C236.2,28.8 236.1,28 236.1,27 L236.1,1.4 L238.7,0.9 L238.7,26.9 C238.7,27.5 238.8,28.1 238.9,28.4 C239,28.8 239.2,29.1 239.4,29.3 C239.6,29.5 240,29.7 240.3,29.8 C240.6,29.9 241.1,30 241.7,30.1 L241.3,32.3 L241.3,32.3 Z" id="Shape"></path>
            </g>
            <g id="Group" transform="translate(0.000000, 16.000000)" fill="#38A4DD">
                <path d="M8.1,27.3 C9.2,27.3 10,27.2 10.4,27 C10.9,26.8 11.1,26.4 11.1,25.8 C11.1,25.3 10.8,24.9 10.2,24.5 C9.6,24.1 8.7,23.7 7.5,23.3 C6.6,23 5.7,22.6 5,22.2 C4.2,21.8 3.6,21.4 3.1,20.9 C2.6,20.4 2.2,19.8 1.9,19 C1.6,18.3 1.5,17.4 1.5,16.4 C1.5,14.4 2.2,12.9 3.7,11.7 C5.2,10.6 7.2,10 9.7,10 C11,10 12.2,10.1 13.4,10.3 C14.6,10.5 15.5,10.8 16.2,11 L15.2,15.6 C14.5,15.4 13.8,15.1 12.9,15 C12.1,14.8 11.2,14.7 10.2,14.7 C8.3,14.7 7.4,15.2 7.4,16.3 C7.4,16.5 7.4,16.8 7.5,16.9 C7.6,17 7.7,17.3 8,17.4 C8.2,17.6 8.6,17.8 9,18 C9.4,18.2 9.9,18.4 10.6,18.7 C11.9,19.2 13,19.7 13.8,20.1 C14.7,20.6 15.3,21.1 15.8,21.6 C16.3,22.1 16.6,22.8 16.8,23.4 C17,24 17.1,24.8 17.1,25.7 C17.1,27.8 16.3,29.3 14.8,30.4 C13.2,31.5 11,32 8.2,32 C6.3,32 4.8,31.8 3.5,31.5 C2.3,31.2 1.4,30.9 0.9,30.7 L1.9,25.9 C2.9,26.3 4,26.6 5,26.8 C6,27.2 7.1,27.3 8.1,27.3 L8.1,27.3 Z" id="Shape"></path>
                <path d="M28,4.5 C28,5.6 27.6,6.5 26.9,7.1 C26.2,7.7 25.4,8 24.4,8 C23.4,8 22.6,7.7 21.9,7.1 C21.2,6.5 20.8,5.6 20.8,4.5 C20.8,3.4 21.2,2.5 21.9,1.9 C22.6,1.3 23.4,1 24.4,1 C25.4,1 26.2,1.3 26.9,1.9 C27.6,2.5 28,3.4 28,4.5 L28,4.5 Z M27.4,31.6 L21.4,31.6 L21.4,10.6 L27.4,10.6 L27.4,31.6 L27.4,31.6 Z" id="Shape"></path>
                <path d="M41.4,32 C39.7,32 38.3,31.8 37.2,31.4 C36.1,31.1 35.3,30.6 34.6,29.9 C34,29.3 33.5,28.5 33.3,27.6 C33.1,26.7 33,25.7 33,24.6 L33,1.4 L39,0.4 L39,23.3 C39,23.8 39,24.3 39.1,24.7 C39.2,25.1 39.3,25.5 39.6,25.8 C39.8,26.1 40.2,26.3 40.6,26.5 C41,26.7 41.6,26.8 42.3,26.9 L41.4,32 L41.4,32 Z" id="Shape"></path>
                <path d="M52.2,4.5 C52.2,5.6 51.8,6.5 51.1,7.1 C50.4,7.7 49.6,8 48.6,8 C47.6,8 46.8,7.7 46.1,7.1 C45.4,6.5 45,5.6 45,4.5 C45,3.4 45.4,2.5 46.1,1.9 C46.8,1.3 47.6,1 48.6,1 C49.6,1 50.4,1.3 51.1,1.9 C51.8,2.5 52.2,3.4 52.2,4.5 L52.2,4.5 Z M51.6,31.6 L45.6,31.6 L45.6,10.6 L51.6,10.6 L51.6,31.6 L51.6,31.6 Z" id="Shape"></path>
                <path d="M56.2,21.1 C56.2,19.6 56.4,18.1 56.9,16.8 C57.4,15.5 58.1,14.3 59,13.3 C59.9,12.3 61.1,11.5 62.4,10.9 C63.7,10.3 65.3,10 67,10 C68.1,10 69.1,10.1 70.1,10.3 C71,10.5 71.9,10.8 72.8,11.2 L71.6,16 C71,15.8 70.4,15.6 69.8,15.4 C69.2,15.2 68.4,15.2 67.6,15.2 C65.8,15.2 64.5,15.7 63.7,16.8 C62.8,17.9 62.4,19.3 62.4,21.1 C62.4,23 62.8,24.5 63.6,25.5 C64.4,26.5 65.8,27.1 67.9,27.1 C68.6,27.1 69.4,27 70.2,26.9 C71,26.8 71.8,26.6 72.5,26.3 L73.3,31.2 C72.6,31.5 71.7,31.7 70.7,32 C69.7,32.2 68.5,32.3 67.3,32.3 C65.4,32.3 63.7,32 62.3,31.4 C60.9,30.8 59.8,30 58.9,29.1 C58,28.1 57.4,26.9 56.9,25.6 C56.4,24.1 56.2,22.6 56.2,21.1 L56.2,21.1 Z" id="Shape"></path>
                <path d="M95.9,21 C95.9,22.7 95.7,24.2 95.2,25.5 C94.7,26.9 94,28 93.1,29 C92.2,30 91.1,30.7 89.8,31.3 C88.5,31.8 87.1,32.1 85.5,32.1 C84,32.1 82.5,31.8 81.3,31.3 C80,30.8 78.9,30 78,29 C77.1,28 76.4,26.9 75.9,25.5 C75.4,24.1 75.1,22.6 75.1,21 C75.1,19.4 75.4,17.8 75.9,16.5 C76.4,15.2 77.1,14 78.1,13 C79,12 80.1,11.3 81.4,10.8 C82.7,10.3 84,10 85.5,10 C87,10 88.4,10.3 89.7,10.8 C91,11.3 92.1,12.1 93,13 C93.9,14 94.6,15.1 95.1,16.5 C95.6,17.9 95.9,19.4 95.9,21 L95.9,21 Z M89.8,21 C89.8,19.2 89.4,17.7 88.7,16.7 C88,15.6 86.9,15.1 85.6,15.1 C84.2,15.1 83.2,15.6 82.4,16.7 C81.7,17.8 81.3,19.2 81.3,21 C81.3,22.8 81.7,24.3 82.4,25.4 C83.1,26.5 84.2,27 85.6,27 C87,27 88,26.5 88.7,25.4 C89.4,24.3 89.8,22.9 89.8,21 L89.8,21 Z" id="Shape"></path>
                <path d="M100.5,11.3 C101.5,11 102.8,10.7 104.4,10.5 C106,10.2 107.7,10.1 109.4,10.1 C111.2,10.1 112.7,10.3 113.9,10.8 C115.1,11.3 116,11.9 116.7,12.8 C117.4,13.7 117.9,14.7 118.2,15.8 C118.5,17 118.6,18.3 118.6,19.7 L118.6,31.6 L112.6,31.6 L112.6,20.4 C112.6,18.5 112.3,17.1 111.8,16.3 C111.3,15.5 110.3,15.1 109,15.1 C108.6,15.1 108.1,15.1 107.6,15.2 C107.1,15.3 106.7,15.3 106.3,15.3 L106.3,31.5 L100.3,31.5 L100.3,11.3 L100.5,11.3 Z" id="Shape"></path>
                <path d="M139.4,31.6 C138,28.9 136.6,25.8 135.2,22.2 C133.8,18.6 132.5,14.7 131.2,10.5 L137.5,10.5 C137.8,11.5 138.1,12.7 138.4,13.9 C138.8,15.1 139.1,16.3 139.5,17.6 C139.9,18.8 140.3,20 140.7,21.2 C141.1,22.4 141.5,23.4 141.8,24.4 C142.1,23.4 142.5,22.4 142.9,21.2 C143.3,20 143.7,18.8 144.1,17.6 C144.5,16.4 144.9,15.1 145.2,13.9 C145.6,12.7 145.9,11.6 146.1,10.5 L152.3,10.5 C151,14.7 149.7,18.6 148.3,22.2 C146.9,25.8 145.5,28.9 144.1,31.6 L139.4,31.6 L139.4,31.6 Z" id="Shape"></path>
                <path d="M162.8,10 C164.6,10 166,10.2 167.2,10.6 C168.4,11 169.3,11.6 170,12.3 C170.7,13 171.2,14 171.5,15 C171.8,16.1 171.9,17.3 171.9,18.6 L171.9,31 C171,31.2 169.9,31.4 168.3,31.7 C166.8,32 164.9,32.1 162.8,32.1 C161.4,32.1 160.2,32 159.1,31.7 C158,31.5 157,31.1 156.2,30.5 C155.4,30 154.8,29.2 154.4,28.4 C154,27.5 153.8,26.4 153.8,25.2 C153.8,24 154,22.9 154.5,22.1 C155,21.2 155.7,20.6 156.5,20.1 C157.3,19.6 158.3,19.2 159.3,19 C160.4,18.8 161.5,18.7 162.6,18.7 C163.4,18.7 164.1,18.7 164.7,18.8 C165.3,18.9 165.8,19 166.2,19.1 L166.2,18.5 C166.2,17.5 165.9,16.7 165.3,16.1 C164.7,15.5 163.6,15.2 162.1,15.2 C161.1,15.2 160.1,15.3 159.1,15.4 C158.1,15.5 157.3,15.8 156.5,16 L155.7,11.2 C156,11.1 156.5,11 157,10.9 C157.5,10.8 158.1,10.7 158.7,10.6 C159.3,10.5 160,10.4 160.6,10.4 C161.4,10 162.1,10 162.8,10 L162.8,10 Z M163.3,27.4 L165,27.4 C165.5,27.4 166,27.3 166.3,27.3 L166.3,22.8 C166.1,22.7 165.7,22.7 165.2,22.6 C164.7,22.5 164.3,22.5 163.9,22.5 C163.3,22.5 162.8,22.5 162.3,22.6 C161.8,22.7 161.4,22.8 161,23 C160.6,23.2 160.3,23.4 160.1,23.8 C159.9,24.1 159.8,24.5 159.8,25 C159.8,25.9 160.1,26.6 160.7,26.9 C161.3,27.2 162.2,27.4 163.3,27.4 L163.3,27.4 Z" id="Shape"></path>
                <path d="M185.8,32 C184.1,32 182.7,31.8 181.6,31.4 C180.5,31.1 179.7,30.6 179,29.9 C178.4,29.3 177.9,28.5 177.7,27.6 C177.5,26.7 177.4,25.7 177.4,24.6 L177.4,1.4 L183.4,0.4 L183.4,23.3 C183.4,23.8 183.4,24.3 183.5,24.7 C183.6,25.1 183.7,25.5 184,25.8 C184.2,26.1 184.6,26.3 185,26.5 C185.4,26.7 186,26.8 186.7,26.9 L185.8,32 L185.8,32 Z" id="Shape"></path>
                <path d="M198.4,32 C196.7,32 195.3,31.8 194.2,31.4 C193.1,31.1 192.3,30.6 191.6,29.9 C191,29.3 190.5,28.5 190.3,27.6 C190.1,26.7 190,25.7 190,24.6 L190,1.4 L196,0.4 L196,23.3 C196,23.8 196,24.3 196.1,24.7 C196.2,25.1 196.3,25.5 196.6,25.8 C196.8,26.1 197.2,26.3 197.6,26.5 C198,26.7 198.6,26.8 199.3,26.9 L198.4,32 L198.4,32 Z" id="Shape"></path>
                <path d="M201.7,21.2 C201.7,19.3 202,17.7 202.6,16.3 C203.2,14.9 203.9,13.7 204.9,12.8 C205.8,11.9 206.9,11.2 208.1,10.7 C209.3,10.2 210.6,10 211.8,10 C214.8,10 217.1,10.9 218.9,12.7 C220.6,14.5 221.5,17.2 221.5,20.8 L221.5,21.9 C221.5,22.3 221.4,22.7 221.4,23 L207.9,23 C208,24.2 208.6,25.2 209.6,25.9 C210.6,26.6 212,27 213.7,27 C214.8,27 215.9,26.9 216.9,26.7 C218,26.5 218.8,26.3 219.5,26 L220.3,30.8 C220,31 219.6,31.1 219,31.3 C218.5,31.5 217.9,31.6 217.2,31.7 C216.5,31.8 215.8,31.9 215.1,32 C214.4,32.1 213.6,32.1 212.9,32.1 C211,32.1 209.4,31.8 208,31.3 C206.6,30.7 205.4,30 204.5,29 C203.6,28 202.9,26.9 202.5,25.5 C201.9,24.2 201.7,22.8 201.7,21.2 L201.7,21.2 Z M215.7,18.9 C215.7,18.4 215.6,17.9 215.4,17.4 C215.3,16.9 215,16.5 214.7,16.1 C214.4,15.7 214,15.4 213.5,15.2 C213,15 212.5,14.8 211.8,14.8 C211.1,14.8 210.6,14.9 210.1,15.1 C209.6,15.3 209.2,15.6 208.9,16 C208.6,16.4 208.3,16.8 208.2,17.3 C208.1,17.8 207.9,18.3 207.8,18.8 L215.7,18.8 L215.7,18.9 Z" id="Shape"></path>
                <path d="M244.7,10.5 C243.5,14.6 242.2,18.4 240.9,21.9 C239.6,25.4 238.2,28.9 236.6,32.2 C236,33.4 235.5,34.4 234.9,35.3 C234.3,36.1 233.7,36.8 233.1,37.4 C232.4,37.9 231.7,38.3 230.8,38.6 C230,38.9 229,39 227.9,39 C227,39 226.1,38.9 225.3,38.7 C224.5,38.5 223.9,38.3 223.4,38.1 L224.4,33.3 C225,33.5 225.6,33.7 226,33.7 C226.5,33.8 227,33.8 227.5,33.8 C228.6,33.8 229.4,33.5 230,32.9 C230.6,32.3 231.1,31.5 231.5,30.5 C230.1,27.8 228.8,24.8 227.4,21.5 C226,18.2 224.8,14.5 223.6,10.3 L229.9,10.3 C230.2,11.3 230.5,12.5 230.8,13.7 C231.2,14.9 231.5,16.1 231.9,17.4 C232.3,18.6 232.7,19.8 233.1,21 C233.5,22.2 233.9,23.2 234.3,24.2 C234.6,23.2 235,22.2 235.4,21 C235.8,19.8 236.1,18.6 236.5,17.4 C236.9,16.2 237.2,14.9 237.5,13.7 C237.8,12.5 238.1,11.4 238.4,10.3 L244.7,10.3 L244.7,10.5 Z" id="Shape"></path>
            </g>
        </g>
    </g>
</svg>